<svg width="438" height="356" viewBox="0 0 438 356" fill="none" xmlns="http://www.w3.org/2000/svg">
<rect y="92" width="194" height="145.5" rx="6" fill="#F3F5F8"/>
<path d="M0 98C0 94.6863 2.68629 92 6 92H188C191.314 92 194 94.6863 194 98V113.164H0V98Z" fill="#E0E7EC"/>
<path fill-rule="evenodd" clip-rule="evenodd" d="M10.5818 105.227C12.0429 105.227 13.2273 104.043 13.2273 102.582C13.2273 101.121 12.0429 99.9364 10.5818 99.9364C9.12078 99.9364 7.93637 101.121 7.93637 102.582C7.93637 104.043 9.12078 105.227 10.5818 105.227ZM19.4 105.227C20.8611 105.227 22.0455 104.043 22.0455 102.582C22.0455 101.121 20.8611 99.9364 19.4 99.9364C17.939 99.9364 16.7546 101.121 16.7546 102.582C16.7546 104.043 17.939 105.227 19.4 105.227ZM30.8636 102.582C30.8636 104.043 29.6792 105.227 28.2182 105.227C26.7571 105.227 25.5727 104.043 25.5727 102.582C25.5727 101.121 26.7571 99.9364 28.2182 99.9364C29.6792 99.9364 30.8636 101.121 30.8636 102.582Z" fill="#94A2AB"/>
<rect x="11.4636" y="121.982" width="171.073" height="47.6182" rx="4" fill="#FFD9C5"/>
<path fill-rule="evenodd" clip-rule="evenodd" d="M106.337 145.837C107.074 146.206 107.074 147.258 106.337 147.626L90.9108 155.339C90.2459 155.672 89.4636 155.188 89.4636 154.445V139.019C89.4636 138.275 90.2459 137.792 90.9108 138.124L106.337 145.837Z" fill="#F54B23"/>
<rect x="11.4636" y="178.418" width="81.1273" height="47.6182" rx="4" fill="#E0E7EC"/>
<path fill-rule="evenodd" clip-rule="evenodd" d="M59.3642 198.123C60.6523 198.123 61.6964 197.07 61.6964 195.77C61.6964 194.471 60.6523 193.418 59.3642 193.418C58.0761 193.418 57.0319 194.471 57.0319 195.77C57.0319 197.07 58.0761 198.123 59.3642 198.123ZM52.9091 212.367H39.4872C38.7025 212.367 38.2235 211.504 38.6384 210.838L47.5892 196.467C47.9744 195.848 48.8675 195.832 49.2687 196.44C50.6686 198.563 53.54 202.925 56.0099 206.726L58.6028 202.538C58.9792 201.93 59.8536 201.903 60.268 202.485L66.1808 210.802C66.6489 211.461 66.1861 212.374 65.3782 212.382L59.6484 212.438L52.9091 212.367Z" fill="#94A2AB"/>
<rect x="101.409" y="178.418" width="81.1273" height="47.6182" rx="4" fill="#E0E7EC"/>
<path fill-rule="evenodd" clip-rule="evenodd" d="M149.31 198.123C150.598 198.123 151.642 197.07 151.642 195.77C151.642 194.471 150.598 193.418 149.31 193.418C148.022 193.418 146.977 194.471 146.977 195.77C146.977 197.07 148.022 198.123 149.31 198.123ZM142.855 212.367H129.433C128.648 212.367 128.169 211.504 128.584 210.838L137.535 196.467C137.92 195.848 138.813 195.832 139.214 196.44C140.614 198.563 143.485 202.925 145.955 206.726L148.548 202.538C148.925 201.93 149.799 201.903 150.213 202.485L156.126 210.802C156.594 211.461 156.132 212.374 155.324 212.382L149.594 212.438L142.855 212.367Z" fill="#94A2AB"/>
<rect x="215" y="191" width="220" height="165" rx="6" fill="#F3F5F8"/>
<path d="M215 197C215 193.686 217.686 191 221 191H429C432.314 191 435 193.686 435 197V215H215V197Z" fill="#E0E7EC"/>
<path fill-rule="evenodd" clip-rule="evenodd" d="M227 206C228.657 206 230 204.657 230 203C230 201.343 228.657 200 227 200C225.343 200 224 201.343 224 203C224 204.657 225.343 206 227 206ZM237 206C238.657 206 240 204.657 240 203C240 201.343 238.657 200 237 200C235.343 200 234 201.343 234 203C234 204.657 235.343 206 237 206ZM250 203C250 204.657 248.657 206 247 206C245.343 206 244 204.657 244 203C244 201.343 245.343 200 247 200C248.657 200 250 201.343 250 203Z" fill="#94A2AB"/>
<rect x="364" y="282" width="58" height="40" rx="4" fill="#FFD9C5"/>
<path fill-rule="evenodd" clip-rule="evenodd" d="M401.873 301.855C402.61 302.224 402.61 303.276 401.873 303.644L386.447 311.357C385.782 311.69 385 311.206 385 310.463V295.037C385 294.293 385.782 293.81 386.447 294.142L401.873 301.855Z" fill="#F54B23"/>
<rect x="228" y="223" width="200" height="50" rx="4" fill="#E0E7EC"/>
<path fill-rule="evenodd" clip-rule="evenodd" d="M253 268C264.046 268 273 259.046 273 248C273 236.954 264.046 228 253 228C241.954 228 233 236.954 233 248C233 259.046 241.954 268 253 268Z" fill="#F3F5F8"/>
<path fill-rule="evenodd" clip-rule="evenodd" d="M257.921 242.865C257.921 245.552 255.713 247.73 252.99 247.73C250.266 247.73 248.058 245.552 248.058 242.865C248.058 240.178 250.266 238 252.99 238C255.713 238 257.921 240.178 257.921 242.865ZM244.051 258.98C244.051 254.11 248.053 250.162 252.99 250.162C257.926 250.162 261.928 254.11 261.928 258.98H244.051Z" fill="#C7D3DC"/>
<rect x="378" y="241" width="40" height="14" rx="7" fill="#649DFF"/>
<path fill-rule="evenodd" clip-rule="evenodd" d="M298 327C296.895 327 296 327.895 296 329V333C296 334.105 296.895 335 298 335H344C345.105 335 346 334.105 346 333V329C346 327.895 345.105 327 344 327H298ZM298 340C296.895 340 296 340.895 296 342V346C296 347.105 296.895 348 298 348H324C325.105 348 326 347.105 326 346V342C326 340.895 325.105 340 324 340H298Z" fill="#E0E7EC"/>
<path fill-rule="evenodd" clip-rule="evenodd" d="M366 327C364.895 327 364 327.895 364 329V333C364 334.105 364.895 335 366 335H412C413.105 335 414 334.105 414 333V329C414 327.895 413.105 327 412 327H366ZM366 340C364.895 340 364 340.895 364 342V346C364 347.105 364.895 348 366 348H392C393.105 348 394 347.105 394 346V342C394 340.895 393.105 340 392 340H366Z" fill="#E0E7EC"/>
<path fill-rule="evenodd" clip-rule="evenodd" d="M230 282C228.895 282 228 282.895 228 284V288C228 289.105 228.895 290 230 290H274C275.105 290 276 289.105 276 288V284C276 282.895 275.105 282 274 282H230ZM230 295C228.895 295 228 295.895 228 297V301C228 302.105 228.895 303 230 303H268C269.105 303 270 302.105 270 301V297C270 295.895 269.105 295 268 295H230ZM228 310C228 308.895 228.895 308 230 308H276C277.105 308 278 308.895 278 310V314C278 315.105 277.105 316 276 316H230C228.895 316 228 315.105 228 314V310ZM230 321C228.895 321 228 321.895 228 323V327C228 328.105 228.895 329 230 329H276C277.105 329 278 328.105 278 327V323C278 321.895 277.105 321 276 321H230Z" fill="#E0E7EC"/>
<rect x="296" y="282" width="58" height="40" rx="4" fill="#E0E7EC"/>
<path fill-rule="evenodd" clip-rule="evenodd" d="M331.901 297.705C333.189 297.705 334.233 296.651 334.233 295.352C334.233 294.053 333.189 293 331.901 293C330.613 293 329.568 294.053 329.568 295.352C329.568 296.651 330.613 297.705 331.901 297.705ZM325.445 311.949H312.024C311.239 311.949 310.76 311.086 311.175 310.42L320.126 296.049C320.511 295.43 321.404 295.414 321.805 296.022C323.205 298.145 326.076 302.507 328.546 306.308L331.139 302.12C331.516 301.512 332.39 301.484 332.804 302.067L338.717 310.384C339.185 311.043 338.722 311.956 337.915 311.963L332.185 312.02L325.445 311.949Z" fill="#94A2AB"/>
<rect x="218" width="220" height="165" rx="6" fill="#F3F5F8"/>
<path d="M218 6C218 2.68629 220.686 0 224 0H432C435.314 0 438 2.68629 438 6V24H218V6Z" fill="#E0E7EC"/>
<path fill-rule="evenodd" clip-rule="evenodd" d="M230 15C231.657 15 233 13.6569 233 12C233 10.3431 231.657 9 230 9C228.343 9 227 10.3431 227 12C227 13.6569 228.343 15 230 15ZM240 15C241.657 15 243 13.6569 243 12C243 10.3431 241.657 9 240 9C238.343 9 237 10.3431 237 12C237 13.6569 238.343 15 240 15ZM253 12C253 13.6569 251.657 15 250 15C248.343 15 247 13.6569 247 12C247 10.3431 248.343 9 250 9C251.657 9 253 10.3431 253 12Z" fill="#94A2AB"/>
<rect x="231" y="33" width="194" height="50" rx="4" fill="#E0E7EC"/>
<path fill-rule="evenodd" clip-rule="evenodd" d="M334.901 53.7046C336.189 53.7046 337.233 52.6514 337.233 51.3523C337.233 50.0532 336.189 49 334.901 49C333.613 49 332.568 50.0532 332.568 51.3523C332.568 52.6514 333.613 53.7046 334.901 53.7046ZM328.445 67.9488H315.024C314.239 67.9488 313.76 67.0862 314.175 66.4201L323.126 52.0485C323.511 51.4301 324.404 51.414 324.805 52.0222C326.205 54.1449 329.076 58.5067 331.546 62.3079L334.139 58.1203C334.516 57.5123 335.39 57.4845 335.804 58.0673L341.717 66.3841C342.185 67.0425 341.722 67.9555 340.915 67.9635L335.185 68.0198L328.445 67.9488Z" fill="#94A2AB"/>
<path fill-rule="evenodd" clip-rule="evenodd" d="M233 92C231.895 92 231 92.8954 231 94V98C231 99.1046 231.895 100 233 100H299C300.105 100 301 99.1046 301 98V94C301 92.8954 300.105 92 299 92H233ZM233 105C231.895 105 231 105.895 231 107V111C231 112.105 231.895 113 233 113H279C280.105 113 281 112.105 281 111V107C281 105.895 280.105 105 279 105H233ZM231 120C231 118.895 231.895 118 233 118H289C290.105 118 291 118.895 291 120V124C291 125.105 290.105 126 289 126H233C231.895 126 231 125.105 231 124V120ZM233 131C231.895 131 231 131.895 231 133V137C231 138.105 231.895 139 233 139H269C270.105 139 271 138.105 271 137V133C271 131.895 270.105 131 269 131H233Z" fill="#E0E7EC"/>
<path fill-rule="evenodd" clip-rule="evenodd" d="M323 105C321.895 105 321 105.895 321 107V111C321 112.105 321.895 113 323 113H391C392.105 113 393 112.105 393 111V107C393 105.895 392.105 105 391 105H323ZM323 118C321.895 118 321 118.895 321 120V124C321 125.105 321.895 126 323 126H400C401.105 126 402 125.105 402 124V120C402 118.895 401.105 118 400 118H323ZM321 133C321 131.895 321.895 131 323 131H409C410.105 131 411 131.895 411 133V137C411 138.105 410.105 139 409 139H323C321.895 139 321 138.105 321 137V133ZM323 144C321.895 144 321 144.895 321 146V150C321 151.105 321.895 152 323 152H382C383.105 152 384 151.105 384 150V146C384 144.895 383.105 144 382 144H323Z" fill="#E0E7EC"/>
<rect x="321" y="92" width="90" height="8" rx="2" fill="#94A2AB"/>
</svg>
