<svg width="591" height="529" viewBox="0 0 591 529" fill="none" xmlns="http://www.w3.org/2000/svg">
<g filter="url(#filter0_d)">
<rect x="30.8862" y="208.23" width="220" height="165" rx="6" transform="rotate(-23.2378 30.8862 208.23)" fill="white"/>
<path d="M33.2535 213.744C31.9461 210.699 33.3546 207.171 36.3995 205.863L227.525 123.797C230.57 122.49 234.099 123.898 235.406 126.943L242.508 143.483L40.3554 230.283L33.2535 213.744Z" fill="#E0E7EC"/>
<path fill-rule="evenodd" clip-rule="evenodd" d="M47.8309 217.279C49.3534 216.625 50.0576 214.861 49.4039 213.339C48.7502 211.816 46.9861 211.112 45.4637 211.766C43.9412 212.419 43.237 214.184 43.8907 215.706C44.5444 217.228 46.3085 217.933 47.8309 217.279ZM57.0197 213.333C58.5421 212.68 59.2464 210.916 58.5927 209.393C57.939 207.871 56.1748 207.167 54.6524 207.82C53.13 208.474 52.4257 210.238 53.0794 211.76C53.7331 213.283 55.4973 213.987 57.0197 213.333ZM67.7814 205.448C68.4351 206.97 67.7309 208.734 66.2084 209.388C64.686 210.042 62.9219 209.337 62.2682 207.815C61.6145 206.293 62.3187 204.528 63.8412 203.875C65.3636 203.221 67.1277 203.925 67.7814 205.448Z" fill="#94A2AB"/>
<rect x="56.2462" y="234.343" width="194" height="54" rx="4" transform="rotate(-23.2378 56.2462 234.343)" fill="#FFD9C5"/>
<path fill-rule="evenodd" clip-rule="evenodd" d="M164.126 217.248C164.949 217.295 165.364 218.262 164.832 218.891L153.701 232.065C153.221 232.633 152.311 232.497 152.018 231.814L145.932 217.64C145.638 216.956 146.166 216.204 146.909 216.247L164.126 217.248Z" fill="#F54B23"/>
<rect x="81.4974" y="293.151" width="92" height="54" rx="4" transform="rotate(-23.2378 81.4974 293.151)" fill="#E0E7EC"/>
<path fill-rule="evenodd" clip-rule="evenodd" d="M139.064 293.142C140.248 292.634 140.792 291.254 140.279 290.06C139.767 288.866 138.392 288.311 137.208 288.819C136.025 289.327 135.481 290.707 135.993 291.901C136.506 293.094 137.881 293.65 139.064 293.142ZM138.753 308.777L126.42 314.073C125.699 314.383 124.919 313.779 125.037 313.003L127.591 296.266C127.701 295.546 128.516 295.179 129.124 295.579C131.248 296.977 135.607 299.852 139.377 302.371L140.107 297.5C140.213 296.793 141.006 296.422 141.616 296.794L150.331 302.103C151.021 302.524 150.956 303.545 150.216 303.871L144.974 306.184L138.753 308.777Z" fill="#94A2AB"/>
<rect x="175.223" y="252.907" width="92" height="54" rx="4" transform="rotate(-23.2378 175.223 252.907)" fill="#E0E7EC"/>
<path fill-rule="evenodd" clip-rule="evenodd" d="M232.79 252.898C233.973 252.39 234.517 251.01 234.005 249.816C233.492 248.622 232.117 248.067 230.934 248.575C229.75 249.083 229.206 250.463 229.719 251.657C230.231 252.85 231.606 253.406 232.79 252.898ZM232.478 268.533L220.145 273.829C219.424 274.139 218.644 273.535 218.762 272.759L221.317 256.022C221.427 255.302 222.241 254.935 222.849 255.335C224.973 256.733 229.333 259.608 233.102 262.127L233.832 257.256C233.938 256.549 234.731 256.178 235.341 256.55L244.056 261.859C244.746 262.28 244.681 263.301 243.942 263.627L238.699 265.94L232.478 268.533Z" fill="#94A2AB"/>
<rect x="213.742" y="321.594" width="220" height="165" rx="6" transform="rotate(-23.2378 213.742 321.594)" fill="white"/>
<path d="M216.109 327.108C214.802 324.063 216.21 320.534 219.255 319.227L410.381 237.161C413.426 235.854 416.954 237.262 418.261 240.307L425.363 256.847L223.211 343.647L216.109 327.108Z" fill="#E0E7EC"/>
<path fill-rule="evenodd" clip-rule="evenodd" d="M230.686 330.643C232.209 329.989 232.913 328.225 232.259 326.703C231.606 325.18 229.842 324.476 228.319 325.13C226.797 325.783 226.092 327.547 226.746 329.07C227.4 330.592 229.164 331.297 230.686 330.643ZM239.875 326.697C241.398 326.044 242.102 324.28 241.448 322.757C240.794 321.235 239.03 320.53 237.508 321.184C235.985 321.838 235.281 323.602 235.935 325.124C236.589 326.647 238.353 327.351 239.875 326.697ZM250.637 318.812C251.291 320.334 250.586 322.098 249.064 322.752C247.541 323.406 245.777 322.701 245.124 321.179C244.47 319.657 245.174 317.892 246.697 317.239C248.219 316.585 249.983 317.289 250.637 318.812Z" fill="#94A2AB"/>
<rect x="386.558" y="346.424" width="58" height="40" rx="4" transform="rotate(-23.2378 386.558 346.424)" fill="#FFD9C5"/>
<path fill-rule="evenodd" clip-rule="evenodd" d="M429.193 349.726C430.015 349.774 430.43 350.74 429.898 351.37L418.767 364.543C418.287 365.111 417.378 364.976 417.084 364.293L410.998 350.118C410.705 349.435 411.233 348.682 411.975 348.725L429.193 349.726Z" fill="#F54B23"/>
<rect x="238.313" y="345.869" width="200" height="50" rx="4" transform="rotate(-23.2378 238.313 345.869)" fill="#E0E7EC"/>
<path fill-rule="evenodd" clip-rule="evenodd" d="M279.039 377.355C289.189 372.997 293.884 361.236 289.526 351.086C285.168 340.937 273.407 336.242 263.257 340.6C253.108 344.958 248.413 356.719 252.771 366.868C257.129 377.018 268.89 381.713 279.039 377.355Z" fill="#F3F5F8"/>
<path fill-rule="evenodd" clip-rule="evenodd" d="M273.644 352.317C274.704 354.786 273.535 357.659 271.032 358.733C268.529 359.808 265.641 358.677 264.581 356.209C263.521 353.74 264.691 350.867 267.193 349.793C269.696 348.718 272.584 349.848 273.644 352.317ZM267.258 372.597C265.336 368.122 267.456 362.916 271.992 360.968C276.528 359.02 281.763 361.069 283.684 365.544L267.258 372.597Z" fill="#C7D3DC"/>
<rect x="383.246" y="303.227" width="40" height="14" rx="7" transform="rotate(-23.2378 383.246 303.227)" fill="#649DFF"/>
<path fill-rule="evenodd" clip-rule="evenodd" d="M343.667 413.814C342.652 414.25 342.182 415.426 342.618 416.441L344.196 420.116C344.632 421.131 345.808 421.601 346.823 421.165L389.092 403.016C390.106 402.58 390.576 401.404 390.14 400.389L388.562 396.713C388.126 395.698 386.95 395.229 385.935 395.665L343.667 413.814ZM348.796 425.759C347.781 426.195 347.312 427.371 347.747 428.386L349.326 432.062C349.761 433.076 350.937 433.546 351.952 433.11L375.843 422.852C376.858 422.416 377.328 421.24 376.892 420.225L375.314 416.55C374.878 415.535 373.702 415.065 372.687 415.501L348.796 425.759Z" fill="#E0E7EC"/>
<path fill-rule="evenodd" clip-rule="evenodd" d="M406.15 386.985C405.135 387.42 404.666 388.596 405.102 389.611L406.68 393.287C407.116 394.302 408.292 394.771 409.307 394.335L451.575 376.186C452.59 375.75 453.059 374.574 452.624 373.559L451.045 369.884C450.61 368.869 449.434 368.399 448.419 368.835L406.15 386.985ZM411.28 398.93C410.265 399.366 409.795 400.542 410.231 401.557L411.809 405.232C412.245 406.247 413.421 406.717 414.436 406.281L438.327 396.023C439.342 395.587 439.811 394.411 439.375 393.396L437.797 389.72C437.361 388.705 436.185 388.236 435.17 388.672L411.28 398.93Z" fill="#E0E7EC"/>
<path fill-rule="evenodd" clip-rule="evenodd" d="M263.429 399.294C262.414 399.73 261.944 400.906 262.38 401.921L263.958 405.596C264.394 406.611 265.57 407.081 266.585 406.645L307.016 389.285C308.031 388.849 308.5 387.673 308.064 386.658L306.486 382.982C306.05 381.967 304.874 381.498 303.859 381.934L263.429 399.294ZM268.558 411.239C267.543 411.675 267.073 412.851 267.509 413.866L269.087 417.541C269.523 418.556 270.699 419.026 271.714 418.59L306.631 403.597C307.646 403.161 308.116 401.985 307.68 400.97L306.102 397.295C305.666 396.28 304.49 395.81 303.475 396.246L268.558 411.239ZM272.638 425.811C272.203 424.796 272.672 423.62 273.687 423.185L315.955 405.035C316.97 404.599 318.146 405.069 318.582 406.084L320.16 409.759C320.596 410.774 320.127 411.95 319.112 412.386L276.843 430.536C275.828 430.971 274.652 430.502 274.217 429.487L272.638 425.811ZM278.816 435.13C277.801 435.566 277.332 436.742 277.767 437.757L279.346 441.432C279.781 442.447 280.958 442.917 281.972 442.481L324.241 424.332C325.256 423.896 325.725 422.72 325.289 421.705L323.711 418.029C323.275 417.014 322.099 416.545 321.084 416.981L278.816 435.13Z" fill="#E0E7EC"/>
<rect x="324.074" y="373.254" width="58" height="40" rx="4" transform="rotate(-23.2378 324.074 373.254)" fill="#E0E7EC"/>
<path fill-rule="evenodd" clip-rule="evenodd" d="M363.259 373.52C364.442 373.011 364.986 371.632 364.474 370.438C363.961 369.244 362.586 368.688 361.403 369.197C360.219 369.705 359.675 371.085 360.188 372.278C360.7 373.472 362.075 374.028 363.259 373.52ZM362.947 389.155L350.614 394.451C349.893 394.76 349.113 394.157 349.231 393.381L351.786 376.644C351.896 375.923 352.71 375.556 353.319 375.957C355.442 377.355 359.802 380.23 363.571 382.748L364.301 377.877C364.407 377.17 365.2 376.8 365.811 377.172L374.525 382.481C375.215 382.901 375.15 383.923 374.411 384.249L369.168 386.561L362.947 389.155Z" fill="#94A2AB"/>
<rect x="253.254" y="112.75" width="220" height="165" rx="6" transform="rotate(-23.2378 253.254 112.75)" fill="white"/>
<path d="M255.621 118.263C254.314 115.218 255.722 111.69 258.767 110.382L449.893 28.3161C452.938 27.0087 456.466 28.4172 457.774 31.4621L464.876 48.0018L262.723 134.803L255.621 118.263Z" fill="#E0E7EC"/>
<path fill-rule="evenodd" clip-rule="evenodd" d="M270.199 121.798C271.721 121.144 272.426 119.38 271.772 117.858C271.118 116.335 269.354 115.631 267.832 116.285C266.309 116.939 265.605 118.703 266.259 120.225C266.912 121.748 268.676 122.452 270.199 121.798ZM279.388 117.853C280.91 117.199 281.614 115.435 280.961 113.912C280.307 112.39 278.543 111.686 277.02 112.339C275.498 112.993 274.794 114.757 275.447 116.28C276.101 117.802 277.865 118.506 279.388 117.853ZM290.149 109.967C290.803 111.489 290.099 113.253 288.576 113.907C287.054 114.561 285.29 113.857 284.636 112.334C283.982 110.812 284.687 109.048 286.209 108.394C287.731 107.74 289.496 108.444 290.149 109.967Z" fill="#94A2AB"/>
<rect x="278.22" y="137.943" width="194" height="50" rx="4" transform="rotate(-23.2378 278.22 137.943)" fill="#E0E7EC"/>
<path fill-rule="evenodd" clip-rule="evenodd" d="M381.86 115.974C383.044 115.466 383.588 114.086 383.075 112.893C382.563 111.699 381.188 111.143 380.004 111.651C378.82 112.16 378.277 113.539 378.789 114.733C379.302 115.927 380.677 116.483 381.86 115.974ZM381.549 131.61L369.216 136.905C368.495 137.215 367.714 136.611 367.833 135.836L370.387 119.098C370.497 118.378 371.311 118.011 371.92 118.412C374.044 119.81 378.403 122.685 382.172 125.203L382.903 120.332C383.009 119.625 383.801 119.255 384.412 119.627L393.126 124.936C393.816 125.356 393.751 126.378 393.012 126.704L387.769 129.016L381.549 131.61Z" fill="#94A2AB"/>
<path fill-rule="evenodd" clip-rule="evenodd" d="M303.336 191.368C302.321 191.804 301.851 192.98 302.287 193.995L303.865 197.67C304.301 198.685 305.477 199.155 306.492 198.719L367.138 172.679C368.153 172.243 368.622 171.067 368.187 170.052L366.608 166.376C366.173 165.361 364.996 164.892 363.981 165.328L303.336 191.368ZM308.465 203.313C307.45 203.749 306.98 204.925 307.416 205.94L308.994 209.616C309.43 210.631 310.606 211.1 311.621 210.664L353.89 192.515C354.904 192.079 355.374 190.903 354.938 189.888L353.36 186.213C352.924 185.198 351.748 184.728 350.733 185.164L308.465 203.313ZM312.545 217.885C312.11 216.87 312.579 215.694 313.594 215.259L365.051 193.164C366.066 192.728 367.242 193.198 367.678 194.212L369.256 197.888C369.692 198.903 369.222 200.079 368.207 200.515L316.75 222.61C315.735 223.045 314.559 222.576 314.124 221.561L312.545 217.885ZM318.723 227.204C317.708 227.64 317.239 228.816 317.674 229.831L319.253 233.506C319.688 234.521 320.865 234.991 321.88 234.555L354.959 220.351C355.974 219.915 356.443 218.739 356.008 217.724L354.429 214.049C353.994 213.034 352.818 212.564 351.803 213L318.723 227.204Z" fill="#E0E7EC"/>
<path fill-rule="evenodd" clip-rule="evenodd" d="M391.164 167.804C390.149 168.24 389.679 169.416 390.115 170.431L391.693 174.106C392.129 175.121 393.305 175.591 394.32 175.155L456.804 148.325C457.818 147.89 458.288 146.714 457.852 145.699L456.274 142.023C455.838 141.008 454.662 140.539 453.647 140.974L391.164 167.804ZM396.293 179.749C395.278 180.185 394.808 181.361 395.244 182.376L396.822 186.052C397.258 187.066 398.434 187.536 399.449 187.1L470.203 156.72C471.217 156.284 471.687 155.108 471.251 154.093L469.673 150.418C469.237 149.403 468.061 148.933 467.046 149.369L396.293 179.749ZM400.373 194.321C399.937 193.306 400.407 192.13 401.422 191.695L480.445 157.763C481.46 157.328 482.636 157.797 483.072 158.812L484.65 162.488C485.086 163.502 484.616 164.679 483.602 165.114L404.578 199.046C403.563 199.481 402.387 199.012 401.951 197.997L400.373 194.321ZM406.551 203.64C405.536 204.076 405.067 205.252 405.502 206.267L407.081 209.942C407.516 210.957 408.692 211.427 409.707 210.991L463.921 187.713C464.936 187.277 465.405 186.101 464.97 185.086L463.391 181.41C462.956 180.395 461.78 179.926 460.765 180.362L406.551 203.64Z" fill="#E0E7EC"/>
<rect x="384.197" y="156.648" width="90" height="8" rx="2" transform="rotate(-23.2378 384.197 156.648)" fill="#94A2AB"/>
</g>
<defs>
<filter id="filter0_d" x="0.88623" y="0.948837" width="569.621" height="527.26" filterUnits="userSpaceOnUse" color-interpolation-filters="sRGB">
<feFlood flood-opacity="0" result="BackgroundImageFix"/>
<feColorMatrix in="SourceAlpha" type="matrix" values="0 0 0 0 0 0 0 0 0 0 0 0 0 0 0 0 0 0 127 0"/>
<feOffset dx="10" dy="15"/>
<feGaussianBlur stdDeviation="20"/>
<feColorMatrix type="matrix" values="0 0 0 0 0 0 0 0 0 0 0 0 0 0 0 0 0 0 0.15 0"/>
<feBlend mode="normal" in2="BackgroundImageFix" result="effect1_dropShadow"/>
<feBlend mode="normal" in="SourceGraphic" in2="effect1_dropShadow" result="shape"/>
</filter>
</defs>
</svg>
