<svg width="178" height="106" viewBox="0 0 178 106" fill="none" xmlns="http://www.w3.org/2000/svg">
<path d="M23.424 27.44C27.9893 27.44 31.8933 29.0187 35.136 32.176C38.3787 35.3333 40 39.536 40 44.784C40 50.032 38.3787 54.2987 35.136 57.584C31.936 60.8693 28.1813 62.512 23.872 62.512C19.6053 62.512 15.7653 60.6347 12.352 56.88L12.352 74.416H5.184L5.184 27.952L12.352 27.952V33.904C15.168 29.5947 18.8587 27.44 23.424 27.44ZM12.224 45.04C12.224 48.2827 13.2053 50.9493 15.168 53.04C17.1307 55.088 19.52 56.112 22.336 56.112C25.152 56.112 27.6053 55.088 29.696 53.04C31.7867 50.992 32.832 48.3467 32.832 45.104C32.832 41.8187 31.808 39.1093 29.76 36.976C27.712 34.8 25.2587 33.712 22.4 33.712C19.5413 33.712 17.1307 34.8 15.168 36.976C13.2053 39.1093 12.224 41.7973 12.224 45.04ZM75.768 62H69.24V57.456C66.424 60.8267 62.648 62.512 57.912 62.512C54.3707 62.512 51.4267 61.5093 49.08 59.504C46.776 57.4987 45.624 54.832 45.624 51.504C45.624 48.1333 46.8613 45.616 49.336 43.952C51.8107 42.288 55.16 41.456 59.384 41.456L68.664 41.456V40.176C68.664 35.6533 66.1467 33.392 61.112 33.392C57.9547 33.392 54.6693 34.544 51.256 36.848L48.056 32.368C52.1947 29.0827 56.888 27.44 62.136 27.44C66.1467 27.44 69.4107 28.464 71.928 30.512C74.488 32.5173 75.768 35.696 75.768 40.048L75.768 62ZM68.6 49.328V46.448L60.536 46.448C55.3733 46.448 52.792 48.0693 52.792 51.312C52.792 52.976 53.432 54.256 54.712 55.152C55.992 56.0053 57.7627 56.432 60.024 56.432C62.328 56.432 64.3333 55.792 66.04 54.512C67.7467 53.232 68.6 51.504 68.6 49.328ZM103.603 34.672C100.061 34.672 97.3945 35.824 95.6025 38.128C93.8105 40.432 92.9145 43.5253 92.9145 47.408V62H85.7465L85.7465 27.952H92.9145V34.8C94.0665 32.6667 95.6238 30.9173 97.5865 29.552C99.5918 28.1867 101.704 27.4827 103.923 27.44L103.987 34.672C103.859 34.672 103.731 34.672 103.603 34.672ZM135.44 51.824C135.44 55.0667 134.267 57.6693 131.92 59.632C129.573 61.552 126.565 62.512 122.896 62.512C120.421 62.512 117.84 62.064 115.152 61.168C112.507 60.272 110.16 59.0133 108.112 57.392L111.568 51.824C115.536 54.8107 119.376 56.304 123.088 56.304C124.709 56.304 125.989 55.9413 126.928 55.216C127.867 54.448 128.336 53.488 128.336 52.336C128.336 50.6293 126.075 49.0933 121.552 47.728C121.211 47.6 120.955 47.5147 120.784 47.472C113.701 45.552 110.16 42.352 110.16 37.872C110.16 34.7147 111.376 32.1973 113.808 30.32C116.283 28.4 119.483 27.44 123.408 27.44C127.333 27.44 131.045 28.592 134.544 30.896L131.856 36.208C129.083 34.3733 126.075 33.456 122.832 33.456C121.125 33.456 119.739 33.776 118.672 34.416C117.605 35.0133 117.072 35.9307 117.072 37.168C117.072 38.2773 117.627 39.088 118.736 39.6C119.504 39.984 120.571 40.3467 121.936 40.688C123.344 41.0293 124.581 41.3707 125.648 41.712C126.715 42.0533 127.739 42.4373 128.72 42.864C129.744 43.2907 130.832 43.888 131.984 44.656C134.288 46.192 135.44 48.5813 135.44 51.824ZM171.143 62H164.615V57.456C161.799 60.8267 158.023 62.512 153.287 62.512C149.746 62.512 146.802 61.5093 144.455 59.504C142.151 57.4987 140.999 54.832 140.999 51.504C140.999 48.1333 142.236 45.616 144.711 43.952C147.186 42.288 150.535 41.456 154.759 41.456H164.039V40.176C164.039 35.6533 161.522 33.392 156.487 33.392C153.33 33.392 150.044 34.544 146.631 36.848L143.431 32.368C147.57 29.0827 152.263 27.44 157.511 27.44C161.522 27.44 164.786 28.464 167.303 30.512C169.863 32.5173 171.143 35.696 171.143 40.048V62ZM163.975 49.328V46.448H155.911C150.748 46.448 148.167 48.0693 148.167 51.312C148.167 52.976 148.807 54.256 150.087 55.152C151.367 56.0053 153.138 56.432 155.399 56.432C157.703 56.432 159.708 55.792 161.415 54.512C163.122 53.232 163.975 51.504 163.975 49.328Z" fill="#545454"/>
<path d="M114.652 94.808H109.864V101H106.372V94.808H92.368V92.288L105.256 75.8H109.144L96.796 91.712H106.48V86.24H109.864V91.712H114.652V94.808ZM124.01 85.844C127.61 85.844 130.25 86.528 131.93 87.896C133.634 89.24 134.486 91.088 134.486 93.44C134.486 94.928 134.126 96.272 133.406 97.472C132.71 98.648 131.642 99.584 130.202 100.28C128.786 100.952 127.034 101.288 124.946 101.288C123.17 101.288 121.454 101.024 119.798 100.496C118.142 99.944 116.774 99.188 115.694 98.228L117.35 95.384C118.214 96.2 119.318 96.86 120.662 97.364C122.006 97.844 123.422 98.084 124.91 98.084C126.806 98.084 128.27 97.688 129.302 96.896C130.358 96.08 130.886 94.976 130.886 93.584C130.886 92.072 130.31 90.932 129.158 90.164C128.006 89.372 126.038 88.976 123.254 88.976H117.53L118.862 75.8H133.082V78.932H121.886L121.202 85.844H124.01ZM155.194 97.868V101H137.086V98.552L147.346 88.652C148.594 87.452 149.434 86.42 149.866 85.556C150.298 84.668 150.514 83.78 150.514 82.892C150.514 81.572 150.046 80.552 149.11 79.832C148.198 79.088 146.878 78.716 145.15 78.716C142.366 78.716 140.218 79.628 138.706 81.452L136.258 79.328C137.242 78.128 138.526 77.192 140.11 76.52C141.718 75.848 143.506 75.512 145.474 75.512C148.114 75.512 150.214 76.148 151.774 77.42C153.334 78.668 154.114 80.372 154.114 82.532C154.114 83.876 153.826 85.148 153.25 86.348C152.674 87.548 151.582 88.916 149.974 90.452L142.27 97.868H155.194ZM167.802 86.384C170.274 86.624 172.158 87.392 173.454 88.688C174.75 89.96 175.398 91.592 175.398 93.584C175.398 95.024 175.038 96.332 174.318 97.508C173.598 98.66 172.518 99.584 171.078 100.28C169.662 100.952 167.922 101.288 165.858 101.288C164.058 101.288 162.33 101.024 160.674 100.496C159.018 99.944 157.662 99.188 156.606 98.228L158.262 95.384C159.126 96.2 160.23 96.86 161.574 97.364C162.918 97.844 164.346 98.084 165.858 98.084C167.73 98.084 169.182 97.688 170.214 96.896C171.27 96.104 171.798 95.012 171.798 93.62C171.798 92.228 171.282 91.148 170.25 90.38C169.218 89.612 167.658 89.228 165.57 89.228H163.554V86.708L169.89 78.932H157.758V75.8H174.39V78.248L167.802 86.384Z" fill="#545454"/>
</svg>
