<svg width="309" height="590" viewBox="0 0 309 590" fill="none" xmlns="http://www.w3.org/2000/svg">
<g filter="url(#filter0_di)">
<rect x="25" y="15" width="259" height="540" rx="38" fill="#324056"/>
<rect x="25.25" y="15.25" width="258.5" height="539.5" rx="37.75" stroke="#121F32" stroke-width="0.5"/>
</g>
<rect x="34" y="24" width="241" height="522" rx="30" fill="#FCF8F5"/>
<mask id="path-4-inside-1" fill="white">
<path fill-rule="evenodd" clip-rule="evenodd" d="M218 27.5974V24L218 27.5C218 25.5027 219.496 24.0041 221.492 24H227C243.802 24 252.202 24 258.62 27.2698C264.265 30.146 268.854 34.7354 271.73 40.3803C275 46.7976 275 55.1984 275 72V498C275 514.802 275 523.202 271.73 529.62C268.854 535.265 264.265 539.854 258.62 542.73C252.202 546 243.802 546 227 546H82C65.1984 546 56.7976 546 50.3803 542.73C44.7354 539.854 40.146 535.265 37.2698 529.62C34 523.202 34 514.802 34 498V72C34 55.1984 34 46.7976 37.2698 40.3803C40.146 34.7354 44.7354 30.146 50.3803 27.2698C56.7976 24 65.1984 24 82 24H87C89 24 91 26 91 28V27.6323C91.0188 35.5706 97.4598 42 105.403 42H203.597C211.552 42 218 35.5517 218 27.5974Z"/>
</mask>
<path d="M218 24L218.5 24L217.5 24H218ZM218 27.5L217.5 27.5L218.5 27.5H218ZM221.492 24V23.5L221.491 23.5L221.492 24ZM258.62 27.2698L258.847 26.8243L258.847 26.8243L258.62 27.2698ZM271.73 40.3803L272.176 40.1533L272.176 40.1533L271.73 40.3803ZM271.73 529.62L272.176 529.847L272.176 529.847L271.73 529.62ZM258.62 542.73L258.847 543.176L258.847 543.176L258.62 542.73ZM50.3803 542.73L50.1533 543.176L50.1533 543.176L50.3803 542.73ZM37.2698 529.62L36.8243 529.847L36.8243 529.847L37.2698 529.62ZM37.2698 40.3803L36.8243 40.1533L36.8243 40.1533L37.2698 40.3803ZM50.3803 27.2698L50.1533 26.8243L50.1533 26.8243L50.3803 27.2698ZM91 27.6323L91.5 27.6311L90.5 27.6323H91ZM217.5 24V27.5974H218.5V24H217.5ZM217.5 24L217.5 27.5L218.5 27.5L218.5 24L217.5 24ZM218.5 27.5C218.5 25.7784 219.773 24.5035 221.493 24.5L221.491 23.5C219.219 23.5046 217.5 25.227 217.5 27.5H218.5ZM221.492 24.5H227V23.5H221.492V24.5ZM227 24.5C235.409 24.5 241.686 24.5004 246.663 24.9071C251.635 25.3133 255.266 26.1223 258.393 27.7153L258.847 26.8243C255.556 25.1475 251.778 24.3216 246.745 23.9104C241.717 23.4996 235.393 23.5 227 23.5V24.5ZM258.393 27.7153C263.943 30.5436 268.456 35.0565 271.285 40.6073L272.176 40.1533C269.252 34.4144 264.586 29.7484 258.847 26.8243L258.393 27.7153ZM271.285 40.6073C272.878 43.7337 273.687 47.3651 274.093 52.3368C274.5 57.3143 274.5 63.591 274.5 72H275.5C275.5 63.6075 275.5 57.283 275.09 52.2554C274.678 47.2219 273.853 43.4442 272.176 40.1533L271.285 40.6073ZM274.5 72V498H275.5V72H274.5ZM274.5 498C274.5 506.409 274.5 512.686 274.093 517.663C273.687 522.635 272.878 526.266 271.285 529.393L272.176 529.847C273.853 526.556 274.678 522.778 275.09 517.745C275.5 512.717 275.5 506.393 275.5 498H274.5ZM271.285 529.393C268.456 534.944 263.943 539.456 258.393 542.285L258.847 543.176C264.586 540.252 269.252 535.586 272.176 529.847L271.285 529.393ZM258.393 542.285C255.266 543.878 251.635 544.687 246.663 545.093C241.686 545.5 235.409 545.5 227 545.5V546.5C235.393 546.5 241.717 546.5 246.745 546.09C251.778 545.678 255.556 544.853 258.847 543.176L258.393 542.285ZM227 545.5H82V546.5H227V545.5ZM82 545.5C73.591 545.5 67.3143 545.5 62.3368 545.093C57.3651 544.687 53.7337 543.878 50.6073 542.285L50.1533 543.176C53.4442 544.853 57.2219 545.678 62.2553 546.09C67.283 546.5 73.6075 546.5 82 546.5V545.5ZM50.6073 542.285C45.0565 539.456 40.5436 534.944 37.7153 529.393L36.8243 529.847C39.7484 535.586 44.4143 540.252 50.1533 543.176L50.6073 542.285ZM37.7153 529.393C36.1223 526.266 35.3133 522.635 34.9071 517.663C34.5004 512.686 34.5 506.409 34.5 498H33.5C33.5 506.393 33.4996 512.717 33.9104 517.745C34.3216 522.778 35.1475 526.556 36.8243 529.847L37.7153 529.393ZM34.5 498V72H33.5V498H34.5ZM34.5 72C34.5 63.591 34.5004 57.3143 34.9071 52.3368C35.3133 47.3651 36.1223 43.7337 37.7153 40.6073L36.8243 40.1533C35.1475 43.4442 34.3216 47.2219 33.9104 52.2554C33.4996 57.283 33.5 63.6075 33.5 72H34.5ZM37.7153 40.6073C40.5436 35.0565 45.0565 30.5436 50.6073 27.7153L50.1533 26.8243C44.4143 29.7484 39.7484 34.4144 36.8243 40.1533L37.7153 40.6073ZM50.6073 27.7153C53.7337 26.1223 57.3651 25.3133 62.3368 24.9071C67.3143 24.5004 73.591 24.5 82 24.5V23.5C73.6075 23.5 67.283 23.4996 62.2553 23.9104C57.2219 24.3216 53.4442 25.1475 50.1533 26.8243L50.6073 27.7153ZM82 24.5H87V23.5H82V24.5ZM91.5 28C91.5 26.8374 90.9237 25.7166 90.1036 24.8965C89.2834 24.0763 88.1626 23.5 87 23.5V24.5C87.8374 24.5 88.7166 24.9237 89.3965 25.6036C90.0763 26.2834 90.5 27.1626 90.5 28H91.5ZM90.5 27.6323V28H91.5V27.6323H90.5ZM105.403 41.5C97.7356 41.5 91.5182 35.2938 91.5 27.6311L90.5 27.6334C90.5195 35.8474 97.1841 42.5 105.403 42.5V41.5ZM203.597 41.5H105.403V42.5H203.597V41.5ZM217.5 27.5974C217.5 35.2756 211.276 41.5 203.597 41.5V42.5C211.828 42.5 218.5 35.8279 218.5 27.5974H217.5Z" fill="#313B4B" style="mix-blend-mode:overlay" mask="url(#path-4-inside-1)"/>
<path fill-rule="evenodd" clip-rule="evenodd" d="M91 24H218V27.5974C218 35.5517 211.552 42 203.597 42H105.403C97.459 42 91.0174 35.5692 91 27.6296V28C91 26 89 24 87 24H91V24ZM221.5 24H218V27.5C218 25.5 219.5 24 221.5 24Z" fill="#324056"/>
<defs>
<filter id="filter0_di" x="0" y="0" width="309" height="590" filterUnits="userSpaceOnUse" color-interpolation-filters="sRGB">
<feFlood flood-opacity="0" result="BackgroundImageFix"/>
<feColorMatrix in="SourceAlpha" type="matrix" values="0 0 0 0 0 0 0 0 0 0 0 0 0 0 0 0 0 0 127 0"/>
<feOffset dy="10"/>
<feGaussianBlur stdDeviation="12.5"/>
<feColorMatrix type="matrix" values="0 0 0 0 0 0 0 0 0 0 0 0 0 0 0 0 0 0 0.34 0"/>
<feBlend mode="normal" in2="BackgroundImageFix" result="effect1_dropShadow"/>
<feBlend mode="normal" in="SourceGraphic" in2="effect1_dropShadow" result="shape"/>
<feColorMatrix in="SourceAlpha" type="matrix" values="0 0 0 0 0 0 0 0 0 0 0 0 0 0 0 0 0 0 127 0" result="hardAlpha"/>
<feOffset dy="2"/>
<feGaussianBlur stdDeviation="1.5"/>
<feComposite in2="hardAlpha" operator="arithmetic" k2="-1" k3="1"/>
<feColorMatrix type="matrix" values="0 0 0 0 0.227451 0 0 0 0 0.239216 0 0 0 0 0.266667 0 0 0 0.6 0"/>
<feBlend mode="normal" in2="shape" result="effect2_innerShadow"/>
</filter>
</defs>
</svg>
